<?xml version="1.0" standalone="no"?>
<!DOCTYPE svg PUBLIC "-//W3C//DTD SVG 20010904//EN"
 "http://www.w3.org/TR/2001/REC-SVG-20010904/DTD/svg10.dtd">
<svg version="1.0" xmlns="http://www.w3.org/2000/svg"
 width="8333.000000pt" height="8333.000000pt" viewBox="0 0 8333.000000 8333.000000"
 preserveAspectRatio="xMidYMid meet">

<g transform="translate(0.000000,8333.000000) scale(0.100000,-0.100000)"
fill="#000000" stroke="none">
<path d="M24503 60920 c-303 -61 -553 -312 -617 -623 -32 -156 -16 -316 47
-470 81 -195 1812 -4128 1845 -4190 19 -38 66 -102 104 -142 314 -336 837
-339 1151 -6 82 87 137 180 179 301 30 89 32 103 32 235 1 104 -4 156 -17 203
-10 35 -317 748 -683 1584 -365 836 -664 1521 -664 1524 0 2 944 4 2098 4
l2098 0 4727 -10977 c2600 -6038 4738 -11009 4753 -11048 82 -222 208 -366
404 -465 95 -48 162 -67 280 -80 68 -8 4542 -10 15495 -8 l15400 3 80 23 c342
99 570 376 592 719 24 374 -209 702 -579 815 l-73 22 -12255 7 c-6740 3
-13562 7 -15160 8 l-2905 1 -4555 10577 c-2505 5818 -4642 10780 -4747 11028
-106 247 -213 491 -238 542 -101 202 -308 361 -534 409 -56 12 -534 14 -3141
13 -1691 -1 -3094 -5 -3117 -9z"/>
<path d="M37720 54756 c-245 -55 -437 -202 -547 -421 -89 -175 -108 -422 -46
-605 8 -25 410 -945 893 -2045 483 -1100 892 -2036 909 -2081 55 -144 130
-249 241 -342 73 -60 212 -132 310 -159 63 -17 686 -18 16935 -18 l16870 0 88
28 c268 84 449 258 539 517 31 91 33 101 32 245 0 144 -1 154 -33 248 -61 178
-186 335 -343 429 -62 38 -128 66 -228 96 -51 16 -1158 17 -16604 22 l-16549
5 -548 1255 -548 1255 17487 5 17487 5 73 23 c454 140 687 595 532 1034 -36
103 -81 176 -164 265 -113 122 -238 195 -399 233 -81 20 -200 20 -18207 19
-14224 -1 -18137 -4 -18180 -13z"/>
<path d="M19115 53070 c-5324 -186 -9788 -342 -9920 -348 -400 -18 -510 -65
-562 -241 -25 -86 -22 -240 7 -315 68 -177 211 -226 710 -241 107 -3 4552
-163 9878 -355 5326 -193 9694 -350 9708 -350 l24 0 0 1095 0 1095 -82 -1
c-46 -1 -4439 -153 -9763 -339z"/>
<path d="M22350 49660 c-4304 -180 -8012 -335 -8240 -344 -436 -18 -523 -26
-605 -57 -57 -22 -79 -39 -117 -89 -72 -96 -87 -334 -29 -465 21 -47 77 -107
122 -130 72 -38 182 -56 399 -66 387 -18 16380 -709 16405 -709 l25 0 0 1095
0 1095 -67 -1 c-38 -1 -3589 -149 -7893 -329z"/>
<path d="M41277 46539 c-161 -39 -338 -155 -437 -286 -111 -146 -162 -299
-162 -483 0 -137 21 -228 83 -358 23 -48 436 -990 918 -2094 483 -1103 893
-2032 912 -2063 101 -168 282 -302 489 -361 63 -19 426 -19 14325 -22 9900 -2
14281 1 14329 8 325 50 586 289 663 608 23 99 21 266 -6 367 -40 150 -117 281
-222 380 -94 89 -172 135 -306 182 l-78 28 -14000 5 -13999 5 -548 1255 c-301
690 -548 1258 -548 1262 0 4 6753 9 15008 10 l15007 3 95 33 c336 117 542 403
542 752 0 356 -213 642 -567 761 l-70 24 -15675 2 c-15446 2 -15676 1 -15753
-18z"/>
<path d="M21170 45565 c-13105 -392 -12113 -361 -12217 -380 -122 -22 -188
-50 -243 -104 -68 -66 -92 -136 -93 -267 -1 -96 0 -104 33 -170 80 -160 220
-206 670 -225 350 -14 22862 -709 22974 -709 l86 0 0 1095 0 1095 -42 -1 c-24
-1 -5049 -151 -11168 -334z"/>
<path d="M25320 41965 c-4914 -183 -9083 -338 -9264 -344 -442 -16 -543 -35
-628 -118 -20 -20 -47 -59 -60 -87 -20 -45 -23 -66 -23 -191 0 -125 2 -145 23
-190 46 -101 131 -157 282 -189 51 -11 200 -21 465 -31 2545 -98 18308 -705
18315 -705 6 0 10 396 10 1095 l0 1095 -92 -1 c-51 -1 -4114 -151 -9028 -334z"/>
<path d="M24295 38140 c-6418 -186 -11773 -343 -11900 -349 -398 -19 -514 -60
-586 -206 -26 -53 -32 -80 -37 -153 -11 -203 70 -317 268 -376 109 -33 247
-46 590 -56 3663 -109 23339 -701 23453 -706 l157 -6 0 1096 0 1096 -137 -1
c-76 -1 -5389 -153 -11808 -339z"/>
<path d="M44985 34240 c-1644 -5 -1743 -6 -1800 -24 -184 -56 -341 -168 -442
-316 -53 -78 -1191 -1967 -1223 -2029 -132 -263 -92 -601 101 -839 166 -205
453 -320 708 -283 211 31 401 139 520 296 25 34 257 410 516 838 l469 777
8882 0 8882 0 478 -790 c263 -434 497 -813 521 -842 154 -189 419 -303 660
-284 338 28 610 252 705 582 19 66 23 102 22 214 -1 227 14 197 -519 1080
-251 415 -529 877 -618 1025 -150 251 -168 277 -257 365 -80 81 -110 103 -190
143 -109 54 -177 73 -305 87 -94 10 -13823 10 -17110 0z"/>
<path d="M38735 30134 c-392 -40 -699 -107 -1013 -220 -995 -361 -1820 -1130
-2236 -2085 -361 -830 -422 -1770 -172 -2641 224 -780 691 -1466 1343 -1975
1018 -793 2349 -1027 3576 -627 488 159 939 415 1332 755 146 127 386 376 501
519 445 559 711 1194 811 1930 26 194 26 755 0 950 -133 982 -563 1796 -1287
2434 -586 517 -1279 830 -2080 942 -110 15 -672 28 -775 18z m553 -1595 c896
-98 1674 -747 1937 -1614 72 -237 101 -469 92 -735 -11 -338 -79 -612 -227
-915 -155 -319 -394 -609 -677 -822 -308 -231 -626 -369 -1013 -438 -127 -23
-472 -31 -610 -16 -956 109 -1742 792 -1975 1716 -103 406 -85 871 47 1270
107 324 303 640 553 891 361 363 816 590 1320 658 123 17 422 20 553 5z"/>
<path d="M65415 30133 c-1073 -90 -2051 -609 -2722 -1443 -178 -222 -381 -551
-497 -808 -733 -1622 -286 -3521 1091 -4628 585 -472 1280 -758 2035 -840 184
-20 569 -23 743 -5 784 80 1466 354 2063 830 453 361 838 841 1084 1351 521
1083 511 2335 -28 3411 -369 737 -998 1365 -1740 1737 -408 204 -872 338
-1346 387 -133 14 -558 19 -683 8z m592 -1598 c766 -100 1438 -588 1774 -1290
141 -295 205 -563 216 -901 6 -215 -4 -351 -43 -542 -66 -330 -239 -693 -456
-960 -359 -441 -858 -732 -1418 -827 -129 -22 -457 -31 -601 -16 -773 81
-1466 561 -1806 1252 -103 209 -164 396 -209 644 -26 141 -26 593 -1 740 41
234 98 416 194 615 77 163 130 249 240 398 359 480 956 823 1553 891 129 15
429 12 557 -4z"/>
</g>
</svg>
